<svg width="26" height="26" viewBox="0 0 26 26" fill="none" xmlns="http://www.w3.org/2000/svg">
<path d="M25.0371 13C25.0371 19.9036 19.4407 25.5 12.5371 25.5C5.63355 25.5 0.0371094 19.9036 0.0371094 13C0.0371094 6.09644 5.63355 0.5 12.5371 0.5C19.4407 0.5 25.0371 6.09644 25.0371 13Z" fill="#D9C4B1"/>
<path d="M11.9206 4.12528C10.4802 4.38685 9.33969 5.49944 9.04323 6.9294C8.98743 7.20494 8.97696 7.35491 8.99091 7.76995C9.01184 8.39076 9.0816 8.68024 9.34666 9.21735C10.093 10.7415 11.7706 11.5123 13.4413 11.0972C14.4213 10.8496 15.2723 10.1521 15.7292 9.21735C15.9908 8.68373 16.064 8.39076 16.0849 7.76995C16.0989 7.35142 16.0884 7.20494 16.0326 6.9294C15.6873 5.2553 14.2086 4.05901 12.5065 4.07645C12.3217 4.07645 12.0601 4.10086 11.9206 4.12528Z" fill="#FDFDFD"/>
<path d="M11.1607 11.9587C7.79855 12.3005 5.21763 15.0104 5.05022 18.3796L5.0293 18.8225L5.15137 18.9446L5.27693 19.0701H12.5C20.4415 19.0701 19.8696 19.0876 19.9847 18.8609C20.0474 18.7423 20.0509 18.4702 19.9986 17.9959C19.7545 15.7533 18.457 13.8106 16.4795 12.7294C15.8901 12.4086 15.0356 12.1226 14.2997 12.004C13.8916 11.9377 11.6839 11.9063 11.1607 11.9587Z" fill="#FDFDFD"/>
</svg>
