<svg width="20" height="26" viewBox="0 0 20 26" fill="none" xmlns="http://www.w3.org/2000/svg">
<path d="M0.977539 2.56221C0.977539 1.45764 1.87297 0.56221 2.97754 0.56221H17.7075C18.8121 0.56221 19.7075 1.45764 19.7075 2.56221V2.56221H0.977539V2.56221Z" fill="#2B2B2D"/>
<path d="M0.977539 2.64333C0.977539 2.09104 1.42525 1.64333 1.97754 1.64333V1.64333C2.52982 1.64333 2.97754 2.09104 2.97754 2.64333V24.5322C2.97754 25.0845 2.52982 25.5322 1.97754 25.5322V25.5322C1.42525 25.5322 0.977539 25.0845 0.977539 24.5322V2.64333Z" fill="#2B2B2D"/>
<path d="M8.62297 16.6207C9.0135 16.2302 9.64666 16.2302 10.0372 16.6207V16.6207C10.4277 17.0112 10.4277 17.6444 10.0372 18.0349L2.85149 25.2206C2.46097 25.6111 1.8278 25.6111 1.43728 25.2206V25.2206C1.04676 24.8301 1.04676 24.1969 1.43728 23.8064L8.62297 16.6207Z" fill="#2B2B2D"/>
<path d="M11.2373 16.2244C11.7896 16.2244 12.2373 16.6722 12.2373 17.2244V17.2244C12.2373 17.7767 11.7896 18.2244 11.2373 18.2244L9.49952 18.2244C8.94723 18.2244 8.49952 17.7767 8.49952 17.2244V17.2244C8.49952 16.6722 8.94723 16.2244 9.49952 16.2244L11.2373 16.2244Z" fill="#2B2B2D"/>
<path d="M10.6954 18.0825C10.3049 17.692 10.3049 17.0588 10.6954 16.6683V16.6683C11.0859 16.2778 11.7191 16.2778 12.1096 16.6683L19.2477 23.8064C19.6382 24.1969 19.6382 24.8301 19.2477 25.2206V25.2206C18.8572 25.6112 18.224 25.6112 17.8335 25.2206L10.6954 18.0825Z" fill="#2B2B2D"/>
<rect x="17.708" y="1.64333" width="2" height="23.8889" rx="1" fill="#2B2B2D"/>
</svg>
